<?xml version="1.0" encoding="UTF-8" standalone="no"?>
<svg
   width="266"
   height="120"
   viewBox="0 0 266 120"
   fill="none"
   version="1.1"
   id="svg24"
   sodipodi:docname="amazon.svg"
   inkscape:version="1.2.2 (732a01da63, 2022-12-09)"
   xmlns:inkscape="http://www.inkscape.org/namespaces/inkscape"
   xmlns:sodipodi="http://sodipodi.sourceforge.net/DTD/sodipodi-0.dtd"
   xmlns="http://www.w3.org/2000/svg"
   xmlns:svg="http://www.w3.org/2000/svg">
  <defs
     id="defs28" />
  <sodipodi:namedview
     id="namedview26"
     pagecolor="#505050"
     bordercolor="#eeeeee"
     borderopacity="1"
     inkscape:showpageshadow="0"
     inkscape:pageopacity="0"
     inkscape:pagecheckerboard="0"
     inkscape:deskcolor="#505050"
     showgrid="false"
     inkscape:zoom="3.1525177"
     inkscape:cx="169.38842"
     inkscape:cy="67.565044"
     inkscape:window-width="1366"
     inkscape:window-height="715"
     inkscape:window-x="-8"
     inkscape:window-y="-8"
     inkscape:window-maximized="1"
     inkscape:current-layer="svg24" />
  <rect
     x="0.20749092"
     width="265.70972"
     height="119.80648"
     fill="#edd2cb"
     id="rect18"
     y="0.19351865"
     style="stroke-width:1.00015" />
  <path
     fill-rule="evenodd"
     clip-rule="evenodd"
     d="M148.049 70.6298C140.799 75.9835 130.257 78.8423 121.192 78.8423C108.482 78.8423 97.0382 74.1423 88.382 66.3223C87.702 65.7073 88.3107 64.8698 89.127 65.3473C98.4695 70.7848 110.021 74.0535 121.952 74.0535C129.999 74.0535 138.852 72.3885 146.992 68.9335C148.222 68.411 149.249 69.7385 148.047 70.631M151.069 67.176C150.144 65.9885 144.944 66.616 142.592 66.8935C141.879 66.981 141.771 66.3598 142.412 65.9135C146.562 62.991 153.374 63.8348 154.171 64.8135C154.967 65.7923 153.964 72.626 150.063 75.886C149.463 76.386 148.893 76.1198 149.159 75.456C150.034 73.2685 151.999 68.366 151.069 67.1748"
     fill="#7B6D79"
     id="path20" />
  <path
     fill-rule="evenodd"
     clip-rule="evenodd"
     d="M142.758 45.284V42.444C142.755 42.3489 142.772 42.2543 142.807 42.1659C142.842 42.0775 142.895 41.9973 142.962 41.93C143.03 41.8628 143.11 41.8099 143.198 41.7747C143.287 41.7395 143.381 41.7227 143.476 41.7252H156.191C156.599 41.7252 156.926 42.019 156.926 42.444V44.8752C156.921 45.2827 156.576 45.8165 155.969 46.6602L149.381 56.0677C151.831 56.0077 154.414 56.3727 156.634 57.624C157.134 57.9065 157.259 58.3203 157.309 58.729V61.7603C157.309 62.1728 156.851 62.6577 156.371 62.4077C152.459 60.3577 147.262 60.1328 142.937 62.429C142.496 62.669 142.034 62.189 142.034 61.7765V58.8978C142.034 58.4353 142.039 57.6477 142.501 56.944L150.135 45.9965H143.504C143.096 45.9965 142.769 45.709 142.769 45.284M96.3713 63.0065H92.5038C92.1338 62.979 91.8413 62.7015 91.8125 62.3477V42.4927C91.8125 42.0952 92.145 41.7802 92.5575 41.7802H96.165C96.54 41.7965 96.84 42.0852 96.8675 42.4427V45.0377H96.9388C97.88 42.529 99.6488 41.359 102.031 41.359C104.453 41.359 105.965 42.529 107.054 45.0377C107.991 42.529 110.116 41.359 112.398 41.359C114.019 41.359 115.793 42.0277 116.875 43.5302C118.1 45.2002 117.85 47.6277 117.85 49.7552L117.841 62.2877C117.841 62.6852 117.509 63.0065 117.096 63.0065H113.221C112.846 62.979 112.525 62.669 112.525 62.2877V51.7502C112.525 50.9127 112.6 48.8227 112.416 48.029C112.129 46.6965 111.263 46.3202 110.141 46.3202C109.204 46.3202 108.226 46.9452 107.829 47.9477C107.431 48.9502 107.47 50.6252 107.47 51.7515V62.2765C107.47 62.674 107.138 62.9953 106.725 62.9953H102.85C102.459 62.9678 102.154 62.6578 102.154 62.2765L102.149 51.7515C102.149 49.5365 102.514 46.2765 99.765 46.2765C96.985 46.2765 97.0938 49.454 97.0938 51.7515V62.2765C97.0938 62.674 96.7613 62.9953 96.3488 62.9953M167.874 41.3752C173.614 41.3752 176.721 46.3052 176.721 52.5727C176.721 58.629 173.288 63.4327 167.874 63.4327C162.249 63.4327 159.167 58.5027 159.167 52.3602C159.167 46.179 162.275 41.3602 167.874 41.3602M167.906 45.414C165.056 45.414 164.875 49.299 164.875 51.7202C164.875 54.1415 164.837 59.3265 167.872 59.3265C170.87 59.3265 171.012 55.1477 171.012 52.6015C171.012 50.9265 170.941 48.9227 170.437 47.334C170.002 45.9515 169.137 45.4127 167.907 45.4127M184.166 63.0065H180.314C179.939 62.979 179.617 62.669 179.617 62.2877L179.613 42.4277C179.645 42.0627 179.966 41.7802 180.358 41.7802H183.945C184.282 41.7965 184.56 42.0252 184.636 42.3352V45.3727H184.707C185.79 42.6577 187.307 41.3627 189.98 41.3627C191.73 41.3627 193.407 41.9877 194.496 43.7027C195.496 45.2902 195.496 47.9627 195.496 49.884V62.384C195.452 62.734 195.131 63.009 194.751 63.009H190.879C190.525 62.9815 190.231 62.7215 190.194 62.384V51.6002C190.194 49.429 190.444 46.2502 187.772 46.2502C186.831 46.2502 185.966 46.8815 185.522 47.8377C184.979 49.0502 184.907 50.259 184.907 51.5977V62.2903C184.902 62.6878 184.565 63.009 184.151 63.009M132.62 53.509C132.62 55.0165 132.657 56.259 131.895 57.6115C131.28 58.699 130.301 59.369 129.218 59.369C127.733 59.369 126.861 58.2377 126.861 56.5665C126.861 53.269 129.816 52.6702 132.618 52.6702V53.5077M136.518 62.9377C136.261 63.1665 135.893 63.1828 135.605 63.0303C134.321 61.964 134.087 61.4678 133.385 60.4515C131.262 62.6165 129.756 63.264 127.007 63.264C123.749 63.264 121.217 61.2565 121.217 57.2353C121.217 54.0952 122.915 51.9577 125.342 50.9127C127.442 49.9877 130.375 49.8252 132.618 49.569V49.069C132.618 48.149 132.689 47.0615 132.143 46.2665C131.675 45.554 130.771 45.2602 129.971 45.2602C128.496 45.2602 127.184 46.0165 126.864 47.5852C126.799 47.9352 126.543 48.2765 126.189 48.2927L122.439 47.8902C122.124 47.819 121.77 47.5652 121.864 47.0777C122.724 42.5277 126.839 41.1577 130.514 41.1577C132.396 41.1577 134.856 41.6577 136.341 43.0827C138.224 44.8402 138.044 47.1852 138.044 49.7377V55.7665C138.044 57.579 138.794 58.3727 139.502 59.354C139.747 59.704 139.802 60.1215 139.486 60.3827L136.529 62.9627L136.524 62.9503M81.9038 53.5215C81.9038 55.029 81.9413 56.2715 81.1788 57.624C80.5638 58.7115 79.5913 59.3815 78.5013 59.3815C77.0163 59.3815 76.1513 58.2502 76.1513 56.579C76.1513 53.2815 79.1063 52.6827 81.9013 52.6827V53.5202M85.8013 62.9503C85.545 63.179 85.1763 63.1952 84.8888 63.0427C83.605 61.9765 83.3888 61.4802 82.6688 60.464C80.5463 62.629 79.0438 63.2765 76.2913 63.2765C73.0388 63.2777 70.5038 61.2703 70.5038 57.2502C70.5038 54.1102 72.2063 51.9727 74.6288 50.9277C76.7288 50.0027 79.6613 49.8402 81.9038 49.584V49.084C81.9038 48.164 81.975 47.0765 81.4363 46.2815C80.9613 45.569 80.0613 45.2752 79.265 45.2752C77.79 45.2752 76.4738 46.0315 76.14 47.6002C76.075 47.9502 75.8188 48.2915 75.4713 48.3077L71.7163 47.9052C71.4013 47.834 71.0538 47.5802 71.1413 47.0927C72.0063 42.5427 76.1163 41.1727 79.7913 41.1727C81.6738 41.1727 84.1338 41.6727 85.6188 43.0977C87.5013 44.8552 87.3213 47.2002 87.3213 49.7527V55.7815C87.3213 57.594 88.0713 58.3877 88.78 59.369C89.03 59.719 89.085 60.1365 88.7675 60.3978L85.8175 62.9627L85.805 62.9503"
     fill="#7B6D79"
     id="path22" />
</svg>
