<?xml version="1.0" encoding="UTF-8" standalone="no"?>
<svg
   width="266"
   height="121"
   viewBox="0 0 266 121"
   fill="none"
   version="1.1"
   id="svg224"
   sodipodi:docname="apple.svg"
   inkscape:version="1.2.2 (732a01da63, 2022-12-09)"
   xmlns:inkscape="http://www.inkscape.org/namespaces/inkscape"
   xmlns:sodipodi="http://sodipodi.sourceforge.net/DTD/sodipodi-0.dtd"
   xmlns="http://www.w3.org/2000/svg"
   xmlns:svg="http://www.w3.org/2000/svg">
  <defs
     id="defs228" />
  <sodipodi:namedview
     id="namedview226"
     pagecolor="#505050"
     bordercolor="#eeeeee"
     borderopacity="1"
     inkscape:showpageshadow="0"
     inkscape:pageopacity="0"
     inkscape:pagecheckerboard="0"
     inkscape:deskcolor="#505050"
     showgrid="false"
     inkscape:zoom="3.1264639"
     inkscape:cx="120.90336"
     inkscape:cy="62.690633"
     inkscape:window-width="1366"
     inkscape:window-height="715"
     inkscape:window-x="-8"
     inkscape:window-y="-8"
     inkscape:window-maximized="1"
     inkscape:current-layer="svg224" />
  <rect
     x="0.28808597"
     y="0.54400003"
     width="265.70999"
     height="120.4457"
     fill="#edd2cb"
     id="rect214"
     style="stroke-width:1.00282"
     ry="0" />
  <path
     d="M96.6224 61.1247C96.5693 55.2806 101.4 52.4728 101.617 52.3348C98.8995 48.3591 94.6744 47.8177 93.1669 47.754C89.5735 47.3878 86.1499 49.8719 84.324 49.8719C82.4981 49.8719 79.6849 47.8071 76.7018 47.8655C72.7793 47.9239 69.1646 50.1426 67.1423 53.6564C63.0711 60.7159 66.1019 71.1884 70.0723 76.9263C72.0149 79.7289 74.3239 82.8871 77.3653 82.7703C80.2953 82.6535 81.3993 80.8754 84.9344 80.8754C88.4694 80.8754 89.4673 82.7703 92.5565 82.7119C95.7041 82.6482 97.6999 79.8456 99.6267 77.0324C101.851 73.7787 102.769 70.6258 102.822 70.4613C102.753 70.4347 96.6861 68.1099 96.6224 61.1247"
     fill="#7B6D79"
     id="path216" />
  <path
     d="M90.808 43.9594C92.4208 42.0061 93.5088 39.2874 93.2118 36.5814C90.8873 36.6774 88.0739 38.1302 86.4073 40.0848C84.9161 41.8102 83.5913 44.575 83.96 47.2298C86.5456 47.432 89.1952 45.9075 90.808 43.9606"
     fill="#7B6D79"
     id="path218" />
  <path
     d="M117 66.8728L114.312 74.9777H110.887L119.64 49.2113H123.652L132.442 74.9777H128.884L126.129 66.8728H117ZM125.451 64.2718L122.929 56.8568C122.356 55.1736 121.974 53.644 121.592 52.154H121.517L120.218 56.8324L117.697 64.2846L125.451 64.2718Z"
     fill="#7B6D79"
     id="path220" />
  <path
     d="M135.044 62.5155L134.891 56.4739H137.912L138.065 59.6483H138.139C139.514 57.3929 141.695 56.0553 144.716 56.0553C149.191 56.0553 152.55 59.8403 152.55 65.4608C152.55 72.1117 148.5 75.3974 144.14 75.3974C141.693 75.3974 139.554 74.3248 138.444 72.4944H138.37V82.5603H135.042L135.044 62.5155ZM138.367 67.4461C138.367 67.9581 138.442 68.4009 138.521 68.8208C139.131 71.1504 141.158 72.7593 143.569 72.7593C147.125 72.7593 149.201 69.8563 149.201 65.6093C149.201 61.8973 147.253 58.7305 143.697 58.7305C141.393 58.7305 139.265 60.3766 138.612 62.8969C138.471 63.342 138.394 63.8049 138.384 64.2717V67.4461H138.367ZM156.027 62.5155L155.874 56.4739H158.895L159.048 59.6483H159.122C160.497 57.3929 162.678 56.0553 165.699 56.0553C170.174 56.0553 173.533 59.8403 173.533 65.4608C173.533 72.1117 169.483 75.3974 165.123 75.3974C162.676 75.3974 160.537 74.3248 159.427 72.4944H159.353V82.5603H156.025L156.027 62.5155ZM159.355 67.4461C159.355 67.9581 159.43 68.4009 159.509 68.8208C160.12 71.1504 162.146 72.7593 164.557 72.7593C168.113 72.7593 170.189 69.8563 170.189 65.6093C170.189 61.8973 168.241 58.7305 164.685 58.7305C162.381 58.7305 160.253 60.3766 159.6 62.8969C159.459 63.342 159.382 63.8049 159.372 64.2717V67.4461H159.355ZM177.014 47.839H180.381V74.9789H177.014V47.839ZM187.142 66.3376C187.216 70.8867 190.124 72.7606 193.484 72.7606C195.894 72.7606 197.343 72.3408 198.607 71.8057L199.18 74.216C197.996 74.7536 195.98 75.3629 193.028 75.3629C187.332 75.3629 183.93 71.615 183.93 66.0368C183.93 60.4585 187.216 56.0579 192.609 56.0579C198.65 56.0579 200.25 61.3699 200.25 64.7619C200.25 65.4531 200.176 65.983 200.122 66.3273L187.142 66.3376ZM197.004 63.9273C197.042 61.7897 196.123 58.4617 192.338 58.4617C188.936 58.4617 187.445 61.5977 187.18 63.9273H197.004Z"
     fill="#7B6D79"
     id="path222" />
</svg>
