<?xml version="1.0" encoding="UTF-8" standalone="no"?>
<svg
   width="266"
   height="120"
   viewBox="0 0 266 120"
   fill="none"
   version="1.1"
   id="svg310"
   sodipodi:docname="facebook.svg"
   inkscape:version="1.2.2 (732a01da63, 2022-12-09)"
   xmlns:inkscape="http://www.inkscape.org/namespaces/inkscape"
   xmlns:sodipodi="http://sodipodi.sourceforge.net/DTD/sodipodi-0.dtd"
   xmlns="http://www.w3.org/2000/svg"
   xmlns:svg="http://www.w3.org/2000/svg">
  <defs
     id="defs314" />
  <sodipodi:namedview
     id="namedview312"
     pagecolor="#505050"
     bordercolor="#eeeeee"
     borderopacity="1"
     inkscape:showpageshadow="0"
     inkscape:pageopacity="0"
     inkscape:pagecheckerboard="0"
     inkscape:deskcolor="#505050"
     showgrid="false"
     inkscape:zoom="3.1525177"
     inkscape:cx="123.71064"
     inkscape:cy="65.344597"
     inkscape:window-width="1366"
     inkscape:window-height="715"
     inkscape:window-x="-8"
     inkscape:window-y="-8"
     inkscape:window-maximized="1"
     inkscape:current-layer="svg310" />
  <rect
     x="2.5032167"
     width="261.70468"
     height="120.12369"
     fill="#edd2cb"
     id="rect306"
     y="0"
     style="stroke-width:0.993903" />
  <path
     d="M64.2356 49.1277C62.3004 49.1277 61.7514 49.9858 61.7514 51.876V54.9994H66.897L66.3914 60.0548H61.7514V75.382H55.5948V60.0548H51.42V54.9994H55.5738V51.9645C55.5738 46.864 57.6185 44.1818 63.3566 44.1818C64.5882 44.1818 66.0614 44.2703 66.9404 44.4023V49.1518M67.2946 65.8185C67.2946 71.5131 69.9994 75.778 75.628 75.778C78.7063 75.778 80.6415 74.2389 81.4981 72.2843V75.3626H87.4132V54.9961H81.4981V58.1195C80.5965 56.1634 78.7289 54.5582 75.628 54.5582C69.993 54.5582 67.2946 58.8456 67.2946 64.5177M73.4738 64.4291C73.4738 61.3943 74.5944 59.3737 77.4537 59.3737C79.9814 59.3737 81.2582 61.2204 81.2582 64.1232V66.1679C81.2582 69.0708 79.9831 70.9174 77.4537 70.9174C74.596 70.9174 73.4738 68.9162 73.4738 65.862V64.4291ZM100.255 54.5566C93.0385 54.5598 89.738 58.4496 89.738 64.6948V65.6398C89.738 71.8834 93.0353 75.7764 100.271 75.7764C102.686 75.7764 104.932 75.2709 106.186 74.4127L104.822 70.0368C103.536 70.645 102.133 70.9674 100.71 70.9818C97.3678 70.9818 95.9172 69.0466 95.9172 65.7703V64.5837C95.9172 61.2864 97.3662 59.3721 100.71 59.3721C102.32 59.3721 103.877 59.8342 104.822 60.3172L106.186 55.9412C104.933 55.0621 102.668 54.5566 100.271 54.5566M106.976 65.9457C106.976 71.9269 109.879 75.8183 117.662 75.8183C120.608 75.8183 123.951 75.1807 125.577 74.321L124.456 70.077C122.653 70.8466 120.212 71.3086 117.903 71.3086C114.474 71.3086 113.242 70.077 113.11 67.2836H126.082V64.0314C126.082 58.3964 123.313 54.5325 116.979 54.5325C110.249 54.5325 106.975 58.3369 106.975 64.1184V65.9586M113.131 63.2989C113.131 60.5506 114.21 58.8134 116.995 58.8134C119.7 58.8134 120.579 60.5732 120.579 62.7934V63.2989H113.131M148.949 64.5306C148.949 58.836 146.201 54.5711 140.572 54.5711C137.714 54.5711 135.736 56.0201 134.834 57.8233V44.214L128.677 44.7614V75.3514H134.506V72.273C135.364 74.2292 137.495 75.7909 140.575 75.7909C146.21 75.7909 148.952 71.5035 148.952 65.8314M142.796 65.92C142.796 68.7777 141.675 70.9335 138.729 70.9335C136.201 70.9335 134.837 69.1303 134.837 66.2275V64.0942C134.837 61.1914 136.201 59.3882 138.729 59.3882C141.675 59.3882 142.796 61.5215 142.796 64.4018V65.92ZM151.019 65.6785C151.019 71.5485 154.362 75.77 161.156 75.77C167.95 75.77 171.293 71.526 171.293 65.6785V64.6449C171.293 58.7748 167.95 54.5534 161.156 54.5534C154.362 54.5534 151.019 58.7973 151.019 64.6449V65.6785ZM165.136 66.0971C165.136 68.8019 164.015 70.9335 161.156 70.9335C158.297 70.9335 157.176 68.8003 157.176 66.0971V64.2069C157.176 61.5021 158.297 59.3705 161.156 59.3705C164.015 59.3705 165.136 61.5038 165.136 64.2069V66.0971ZM173.337 65.6785C173.337 71.5485 176.68 75.77 183.474 75.77C190.268 75.77 193.61 71.526 193.61 65.6785V64.6449C193.61 58.7748 190.268 54.5534 183.474 54.5534C176.68 54.5534 173.337 58.7973 173.337 64.6449V65.6785ZM187.473 66.0971C187.473 68.8019 186.353 70.9335 183.493 70.9335C180.634 70.9335 179.512 68.8405 179.512 66.1035V64.2134C179.512 61.5086 180.632 59.3769 183.492 59.3769C186.351 59.3769 187.471 61.5102 187.471 64.2134L187.473 66.0971ZM202.095 44.1979L195.938 44.7453V75.2966H202.095V65.3372L208.427 75.2966H214.98L208.34 64.9926L214.716 54.9462H208.163L202.093 64.6642"
     fill="#7B6D79"
     id="path308" />
</svg>
