<?xml version="1.0" encoding="UTF-8" standalone="no"?>
<svg
   width="266"
   height="120"
   viewBox="0 0 266 120"
   fill="none"
   version="1.1"
   id="svg40"
   sodipodi:docname="google.svg"
   inkscape:version="1.2.2 (732a01da63, 2022-12-09)"
   xmlns:inkscape="http://www.inkscape.org/namespaces/inkscape"
   xmlns:sodipodi="http://sodipodi.sourceforge.net/DTD/sodipodi-0.dtd"
   xmlns="http://www.w3.org/2000/svg"
   xmlns:svg="http://www.w3.org/2000/svg">
  <defs
     id="defs44" />
  <sodipodi:namedview
     id="namedview42"
     pagecolor="#505050"
     bordercolor="#eeeeee"
     borderopacity="1"
     inkscape:showpageshadow="0"
     inkscape:pageopacity="0"
     inkscape:pagecheckerboard="0"
     inkscape:deskcolor="#505050"
     showgrid="false"
     inkscape:zoom="3.1525177"
     inkscape:cx="159.2378"
     inkscape:cy="57.09722"
     inkscape:window-width="1366"
     inkscape:window-height="715"
     inkscape:window-x="-8"
     inkscape:window-y="-8"
     inkscape:window-maximized="1"
     inkscape:current-layer="svg40" />
  <rect
     x="0.199982"
     width="265.70972"
     height="120.12369"
     fill="#edd2cb"
     id="rect26"
     y="0"
     style="stroke-width:1.00148" />
  <path
     d="M100.757 55.8773H86.2336V60.1867H96.5344C96.024 66.2187 90.9977 68.8078 86.251 68.8078C84.7473 68.8144 83.2573 68.5214 81.868 67.9458C80.4788 67.3703 79.2181 66.5238 78.1596 65.4556C77.1011 64.3875 76.266 63.1193 75.703 61.7249C75.14 60.3305 74.8605 58.8379 74.8807 57.3343C74.8807 50.8104 79.9313 45.7876 86.2649 45.7876C91.1509 45.7876 94.03 48.9022 94.03 48.9022L97.046 45.7772C97.046 45.7772 93.1716 41.4655 86.1072 41.4655C77.1114 41.4655 70.1525 49.0577 70.1525 57.2577C70.1525 65.293 76.6984 73.1288 86.3345 73.1288C94.8107 73.1288 101.016 67.3219 101.016 58.7355C101.016 56.9236 100.752 55.8773 100.752 55.8773H100.757Z"
     fill="#7B6D79"
     id="path28" />
  <path
     d="M112.654 52.756C106.694 52.756 102.423 57.4157 102.423 62.848C102.423 68.3626 106.564 73.1082 112.724 73.1082C118.299 73.1082 122.866 68.8475 122.866 62.9663C122.866 56.2383 117.553 52.7548 112.654 52.7548V52.756ZM112.712 56.7533C115.642 56.7533 118.419 59.1232 118.419 62.9408C118.419 66.676 115.654 69.1143 112.698 69.1143C109.45 69.1143 106.898 66.5136 106.898 62.9106C106.898 59.3842 109.427 56.7533 112.722 56.7533H112.712Z"
     fill="#7B6D79"
     id="path30" />
  <path
     d="M134.902 52.7559C128.942 52.7559 124.671 57.4156 124.671 62.8479C124.671 68.3626 128.812 73.1081 134.972 73.1081C140.547 73.1081 145.114 68.8474 145.114 62.9662C145.114 56.2382 139.801 52.7548 134.902 52.7548V52.7559ZM134.96 56.7533C137.891 56.7533 140.668 59.1232 140.668 62.9407C140.668 66.6759 137.902 69.1142 134.947 69.1142C131.699 69.1142 129.147 66.5135 129.147 62.9106C129.147 59.3842 131.675 56.7533 134.97 56.7533H134.96Z"
     fill="#7B6D79"
     id="path32" />
  <path
     d="M156.728 52.7677C151.257 52.7677 146.958 57.5585 146.958 62.9363C146.958 69.0611 151.943 73.1234 156.633 73.1234C159.533 73.1234 161.075 71.9715 162.201 70.6503V72.6571C162.201 76.1684 160.069 78.2715 156.851 78.2715C153.742 78.2715 152.183 75.9596 151.631 74.6488L147.719 76.2728C149.107 79.2076 151.9 82.2665 156.883 82.2665C162.335 82.2665 166.467 78.841 166.467 71.656V53.379H162.217V55.1028C160.906 53.6876 159.11 52.7677 156.73 52.7677H156.728ZM157.122 56.7581C159.804 56.7581 162.558 59.0479 162.558 62.9583C162.558 66.9336 159.809 69.1237 157.063 69.1237C154.147 69.1237 151.433 66.7573 151.433 62.9954C151.433 59.0885 154.252 56.7569 157.122 56.7569V56.7581Z"
     fill="#7B6D79"
     id="path34" />
  <path
     d="M185.462 52.743C180.303 52.743 175.97 56.8494 175.97 62.9046C175.97 69.3147 180.799 73.1161 185.946 73.1161C190.252 73.1161 192.906 70.7613 194.472 68.6501L190.954 66.3092C190.041 67.7244 188.514 69.1106 185.968 69.1106C183.108 69.1106 181.792 67.5446 180.977 66.025L194.622 60.3642L193.926 58.7054C192.608 55.4574 189.533 52.743 185.464 52.743H185.462ZM185.64 56.6568C187.499 56.6568 188.837 57.6451 189.405 58.8307L180.292 62.6389C179.898 59.6902 182.694 56.6568 185.628 56.6568H185.64Z"
     fill="#7B6D79"
     id="path36" />
  <path
     d="M169.455 72.5125H173.938V42.5184H169.455V72.5125Z"
     fill="#7B6D79"
     id="path38" />
</svg>
