<?xml version="1.0" encoding="UTF-8" standalone="no"?>
<svg
   width="266"
   height="120"
   viewBox="0 0 266 120"
   fill="none"
   version="1.1"
   id="svg48"
   sodipodi:docname="microsoft.svg"
   inkscape:version="1.2.2 (732a01da63, 2022-12-09)"
   xmlns:inkscape="http://www.inkscape.org/namespaces/inkscape"
   xmlns:sodipodi="http://sodipodi.sourceforge.net/DTD/sodipodi-0.dtd"
   xmlns="http://www.w3.org/2000/svg"
   xmlns:svg="http://www.w3.org/2000/svg">
  <sodipodi:namedview
     id="namedview50"
     pagecolor="#505050"
     bordercolor="#eeeeee"
     borderopacity="1"
     inkscape:showpageshadow="0"
     inkscape:pageopacity="0"
     inkscape:pagecheckerboard="0"
     inkscape:deskcolor="#505050"
     showgrid="false"
     inkscape:zoom="3.1525177"
     inkscape:cx="135.13009"
     inkscape:cy="64.710183"
     inkscape:window-width="1366"
     inkscape:window-height="715"
     inkscape:window-x="-8"
     inkscape:window-y="-8"
     inkscape:window-maximized="1"
     inkscape:current-layer="svg48" />
  <rect
     width="266.02692"
     height="120.12369"
     fill="#edd2cb"
     id="rect29"
     x="0"
     y="0"
     style="stroke-width:1.00207" />
  <g
     clip-path="url(#clip0_0_1)"
     id="g41">
    <path
       d="M228.574 58.049V54.6734H224.382V49.4254L224.24 49.4689L220.303 50.6736L220.225 50.6972V54.6735H214.011V52.4584C214.011 51.4269 214.241 50.6376 214.696 50.1112C215.147 49.5911 215.793 49.3267 216.617 49.3267C217.208 49.3267 217.821 49.4661 218.438 49.7411L218.593 49.8102V46.2551L218.52 46.2284C217.945 46.0215 217.162 45.9174 216.192 45.9174C214.969 45.9174 213.858 46.1834 212.889 46.7108C211.92 47.2389 211.157 47.9927 210.623 48.9512C210.091 49.9086 209.821 51.0143 209.821 52.238V54.6734H206.902V58.049H209.821V72.2702H214.011V58.049H220.225V67.0863C220.225 70.8083 221.981 72.6945 225.444 72.6945C226.012 72.6945 226.611 72.6278 227.223 72.4973C227.845 72.3632 228.269 72.2293 228.519 72.0864L228.574 72.0537V68.6468L228.403 68.7595C228.176 68.911 227.893 69.0349 227.561 69.127C227.227 69.2208 226.949 69.2677 226.733 69.2677C225.922 69.2677 225.322 69.0492 224.949 68.6178C224.573 68.1826 224.382 67.4215 224.382 66.3568V58.049H228.574ZM197.544 69.2683C196.023 69.2683 194.824 68.764 193.979 67.7706C193.129 66.7722 192.698 65.3487 192.698 63.5402C192.698 61.6743 193.129 60.2139 193.979 59.1979C194.825 58.1885 196.012 57.6762 197.51 57.6762C198.963 57.6762 200.119 58.1655 200.948 59.1312C201.78 60.1019 202.203 61.5506 202.203 63.4383C202.203 65.3491 201.806 66.8169 201.022 67.7988C200.244 68.7733 199.074 69.2683 197.544 69.2683M197.73 54.2494C194.829 54.2494 192.524 55.0997 190.881 56.7766C189.238 58.4536 188.406 60.7745 188.406 63.6752C188.406 66.4303 189.218 68.6464 190.822 70.2609C192.425 71.876 194.607 72.6941 197.306 72.6941C200.119 72.6941 202.377 71.832 204.02 70.1319C205.662 68.4336 206.494 66.1347 206.494 63.3018C206.494 60.5036 205.714 58.2709 204.173 56.6672C202.632 55.0627 200.464 54.2494 197.73 54.2494M181.65 54.2494C179.676 54.2494 178.043 54.7543 176.796 55.7497C175.541 56.7511 174.905 58.0645 174.905 59.6537C174.905 60.4798 175.042 61.2136 175.312 61.836C175.584 62.4605 176.005 63.0103 176.565 63.4717C177.12 63.9294 177.976 64.4088 179.112 64.8966C180.066 65.2893 180.778 65.6215 181.23 65.8833C181.672 66.1399 181.985 66.3978 182.163 66.6491C182.335 66.8949 182.422 67.2314 182.422 67.6465C182.422 68.8288 181.537 69.404 179.715 69.404C179.039 69.404 178.268 69.2629 177.424 68.9848C176.586 68.7108 175.795 68.3096 175.078 67.7953L174.904 67.6705V71.7048L174.968 71.7345C175.561 72.0082 176.309 72.239 177.19 72.4206C178.069 72.6024 178.868 72.6949 179.562 72.6949C181.704 72.6949 183.429 72.1876 184.687 71.1862C185.954 70.1779 186.596 68.8336 186.596 67.1894C186.596 66.0033 186.25 64.9861 185.569 64.1658C184.893 63.3521 183.719 62.6051 182.081 61.9448C180.776 61.4212 179.941 60.9865 179.596 60.6529C179.263 60.3305 179.095 59.8747 179.095 59.2974C179.095 58.7856 179.303 58.3757 179.731 58.0437C180.162 57.71 180.762 57.5403 181.514 57.5403C182.212 57.5403 182.926 57.6506 183.637 57.8667C184.347 58.0828 184.97 58.3723 185.491 58.7264L185.662 58.8434V55.0165L185.596 54.9883C185.116 54.7823 184.483 54.6061 183.714 54.4632C182.948 54.3211 182.254 54.2494 181.65 54.2494M163.981 69.2683C162.46 69.2683 161.261 68.764 160.416 67.7706C159.565 66.7722 159.135 65.3491 159.135 63.5402C159.135 61.6743 159.566 60.2139 160.417 59.1979C161.262 58.1885 162.449 57.6762 163.947 57.6762C165.399 57.6762 166.556 58.1655 167.385 59.1312C168.218 60.1019 168.64 61.5506 168.64 63.4383C168.64 65.3491 168.242 66.8169 167.459 67.7988C166.681 68.7733 165.511 69.2683 163.981 69.2683M164.167 54.2494C161.265 54.2494 158.96 55.0997 157.318 56.7766C155.676 58.4536 154.842 60.7745 154.842 63.6752C154.842 66.4314 155.656 68.6464 157.259 70.2609C158.862 71.876 161.044 72.6941 163.743 72.6941C166.555 72.6941 168.815 71.832 170.457 70.1319C172.099 68.4336 172.932 66.1347 172.932 63.3018C172.932 60.5036 172.151 58.2709 170.61 56.6672C169.068 55.0627 166.9 54.2494 164.167 54.2494M148.482 57.7208V54.6734H144.342V72.2698H148.482V63.2685C148.482 61.738 148.829 60.4805 149.514 59.5308C150.19 58.5923 151.091 58.1168 152.191 58.1168C152.563 58.1168 152.982 58.1783 153.435 58.2999C153.884 58.4208 154.209 58.5521 154.4 58.6902L154.574 58.8163V54.6433L154.507 54.6145C154.122 54.4507 153.576 54.3681 152.886 54.3681C151.846 54.3681 150.915 54.7023 150.118 55.3604C149.418 55.9388 148.913 56.7318 148.526 57.7208H148.482ZM136.93 54.2494C135.031 54.2494 133.337 54.6566 131.896 55.4593C130.453 56.2639 129.336 57.4125 128.577 58.8731C127.82 60.3301 127.436 62.0321 127.436 63.9301C127.436 65.5927 127.809 67.1185 128.544 68.4632C129.281 69.8101 130.323 70.8638 131.642 71.5947C132.959 72.3246 134.481 72.6947 136.167 72.6947C138.134 72.6947 139.814 72.3014 141.16 71.5258L141.215 71.4946V67.7024L141.041 67.8294C140.431 68.2738 139.749 68.6284 139.016 68.8839C138.284 69.1392 137.617 69.2683 137.032 69.2683C135.408 69.2683 134.104 68.7601 133.158 67.7581C132.209 66.7549 131.728 65.3461 131.728 63.5734C131.728 61.7896 132.23 60.3446 133.218 59.2784C134.204 58.2154 135.51 57.6762 137.1 57.6762C138.461 57.6762 139.787 58.1369 141.041 59.0467L141.215 59.1728V55.1771L141.159 55.1455C140.687 54.8813 140.043 54.6631 139.244 54.4977C138.448 54.3326 137.669 54.2494 136.93 54.2494M124.585 54.6735H120.446V72.2698H124.585V54.6735V54.6735ZM122.558 47.1774C121.877 47.1774 121.283 47.4093 120.795 47.8689C120.304 48.3297 120.056 48.91 120.056 49.5948C120.056 50.2688 120.301 50.8385 120.787 51.2871C121.269 51.7344 121.865 51.9611 122.558 51.9611C123.251 51.9611 123.849 51.7344 124.338 51.2878C124.829 50.8385 125.078 50.269 125.078 49.5948C125.078 48.9339 124.836 48.3596 124.358 47.8874C123.88 47.4162 123.275 47.1774 122.558 47.1774ZM112.231 53.3753V72.2698H116.455V47.7161H110.608L103.177 65.9539L95.9651 47.7161H89.8804V72.2696H93.8501V53.3734H93.9864L101.602 72.2698H104.598L112.094 53.3753H112.231V53.3753Z"
       fill="#7B6D79"
       id="path31" />
    <path
       d="M56.0978 58.984H36.6256V39.512H56.0978V58.984Z"
       fill="#7B6D79"
       id="path33" />
    <path
       d="M77.5942 58.9823H58.1224V39.5103H77.5942V58.9823Z"
       fill="#7B6D79"
       id="path35" />
    <path
       d="M56.0972 80.489H36.6256V61.0172H56.0972V80.489Z"
       fill="#7B6D79"
       id="path37" />
    <path
       d="M77.5942 80.4893H58.1224V61.0174H77.5942V80.4893Z"
       fill="#7B6D79"
       id="path39" />
  </g>
  <defs
     id="defs46">
    <clipPath
       id="clip0_0_1">
      <rect
         width="191.949"
         height="41"
         fill="white"
         transform="translate(36.6256 39.5)"
         id="rect43" />
    </clipPath>
  </defs>
</svg>
